<?xml version="1.0" encoding="utf-8"?>
<!-- Generator: Adobe Illustrator 22.1.0, SVG Export Plug-In . SVG Version: 6.00 Build 0)  -->
<svg version="1.1" id="Layer_1" xmlns="http://www.w3.org/2000/svg" xmlns:xlink="http://www.w3.org/1999/xlink" x="0px" y="0px"
	 viewBox="0 0 144.9 80.1" style="enable-background:new 0 0 144.9 80.1;" xml:space="preserve">
<style type="text/css">
	.st0{fill:#2F2F2F;}
	.st1{fill:#FFFFFF;}
</style>
<title>Kerala Relief page icons</title>
<g id="Layer_3">
	<path class="st0" d="M38.7,11.9c-0.5,0-1.1-0.1-1.5-0.4c-0.4-0.3-0.8-0.6-1.1-1.1v4.3h-1.5V4.4h1.4v1.3c0.3-0.4,0.6-0.8,1.1-1.1
		c0.5-0.3,1-0.4,1.5-0.4c0.5,0,1,0.1,1.4,0.3c0.4,0.2,0.8,0.5,1.1,0.8c0.3,0.4,0.6,0.8,0.7,1.2c0.2,0.5,0.3,1,0.3,1.5
		c0,0.5-0.1,1-0.2,1.5c-0.1,0.4-0.4,0.8-0.7,1.2c-0.3,0.3-0.6,0.6-1,0.8C39.6,11.8,39.2,11.9,38.7,11.9z M38.2,10.6
		c0.3,0,0.6-0.1,0.9-0.2c0.3-0.1,0.5-0.3,0.7-0.6C40,9.6,40.1,9.3,40.2,9c0.1-0.3,0.2-0.6,0.2-0.9c0-0.3-0.1-0.7-0.2-1
		c-0.1-0.3-0.3-0.5-0.5-0.8c-0.2-0.2-0.5-0.4-0.7-0.5c-0.3-0.1-0.6-0.2-0.9-0.2c-0.2,0-0.4,0-0.6,0.1c-0.2,0.1-0.4,0.2-0.6,0.3
		c-0.2,0.1-0.3,0.3-0.5,0.5c-0.1,0.2-0.2,0.4-0.3,0.6v1.9c0.1,0.2,0.2,0.4,0.4,0.6c0.1,0.2,0.3,0.4,0.5,0.5c0.2,0.1,0.4,0.3,0.6,0.3
		C37.7,10.5,38,10.5,38.2,10.6L38.2,10.6z"/>
	<path class="st0" d="M46.6,11.9c-0.5,0-1.1-0.1-1.6-0.3c-0.4-0.2-0.8-0.5-1.2-0.8c-0.3-0.3-0.6-0.8-0.8-1.2c-0.3-0.9-0.3-2,0-2.9
		c0.2-0.4,0.4-0.9,0.8-1.2c0.3-0.3,0.7-0.6,1.2-0.8c0.5-0.2,1-0.3,1.5-0.3c0.5,0,1.1,0.1,1.5,0.3c0.4,0.2,0.8,0.5,1.2,0.8
		c0.3,0.3,0.6,0.8,0.8,1.2c0.4,0.9,0.4,2,0,2.9c-0.2,0.5-0.4,0.9-0.8,1.2c-0.3,0.4-0.7,0.6-1.2,0.8C47.7,11.8,47.1,11.9,46.6,11.9z
		 M44.5,8.1c0,0.3,0.1,0.7,0.2,1c0.2,0.6,0.6,1,1.2,1.3c0.5,0.3,1.2,0.3,1.7,0c0.3-0.1,0.5-0.3,0.7-0.5c0.2-0.2,0.4-0.5,0.5-0.8
		c0.2-0.6,0.2-1.4,0-2c-0.1-0.3-0.3-0.6-0.5-0.8C48,6,47.8,5.9,47.5,5.7c-0.3-0.1-0.6-0.2-0.9-0.2c-0.3,0-0.6,0.1-0.8,0.2
		c-0.3,0.1-0.5,0.3-0.7,0.5c-0.2,0.2-0.4,0.5-0.5,0.8C44.5,7.4,44.5,7.7,44.5,8.1z"/>
	<path class="st0" d="M60.6,4.4h1.5L59,11.7h-1.3l-1.4-3.4L55,11.7h-1.3l-3.1-7.3h1.5l2.3,5.8l1.1-2.7l-1.3-3.1h1.3l0.8,2.3l0.8-2.3
		h1.3l-1.3,3.1l1.1,2.7L60.6,4.4z"/>
	<path class="st0" d="M66.2,11.9c-0.5,0-1.1-0.1-1.6-0.3c-0.9-0.4-1.6-1.1-2-2c-0.4-0.9-0.4-2,0-2.9c0.2-0.5,0.5-0.9,0.8-1.3
		c0.3-0.4,0.7-0.6,1.2-0.8c0.5-0.2,1-0.3,1.6-0.3c0.5,0,1.1,0.1,1.6,0.3c0.4,0.2,0.8,0.5,1.2,0.8c0.3,0.3,0.6,0.7,0.8,1.2
		C69.9,7,70,7.5,70,8c0,0.1,0,0.2,0,0.3s0,0.2,0,0.2h-6c0,0.3,0.1,0.6,0.2,0.9c0.1,0.3,0.3,0.5,0.5,0.7c0.2,0.2,0.4,0.3,0.7,0.4
		c0.3,0.1,0.5,0.2,0.8,0.1c0.2,0,0.4,0,0.6-0.1c0.2,0,0.4-0.1,0.6-0.2c0.2-0.1,0.3-0.2,0.4-0.4c0.1-0.1,0.2-0.3,0.3-0.5l1.3,0.4
		c-0.3,0.6-0.7,1-1.2,1.4C67.6,11.7,66.9,11.9,66.2,11.9z M68.4,7.5c0-0.3-0.1-0.6-0.2-0.9C68,6.4,67.9,6.2,67.7,6
		c-0.2-0.2-0.4-0.3-0.7-0.4c-0.5-0.2-1.1-0.2-1.6,0c-0.2,0.1-0.5,0.2-0.7,0.4c-0.2,0.2-0.4,0.4-0.5,0.7C64.1,7,64,7.2,64,7.5H68.4z"
		/>
	<path class="st0" d="M75.3,5.7c-0.6,0-1.1,0.2-1.6,0.4c-0.4,0.2-0.8,0.6-1,1.1v4.5h-1.5V4.4h1.4V6c0.2-0.5,0.6-0.9,1-1.2
		c0.4-0.3,0.8-0.5,1.3-0.5h0.2h0.2L75.3,5.7z"/>
	<path class="st0" d="M79.4,11.9c-0.5,0-1.1-0.1-1.6-0.3c-0.5-0.2-0.9-0.5-1.2-0.8c-0.3-0.3-0.6-0.8-0.8-1.2c-0.4-0.9-0.4-2,0-2.9
		c0.2-0.5,0.4-0.9,0.8-1.2c0.3-0.4,0.7-0.6,1.2-0.8c1-0.4,2.1-0.4,3.1,0c0.4,0.2,0.8,0.5,1.2,0.8c0.3,0.3,0.6,0.7,0.8,1.2
		C83,7.1,83.1,7.6,83.1,8c0,0.1,0,0.2,0,0.3s0,0.2,0,0.2h-5.9c0,0.3,0.1,0.6,0.2,0.9c0.1,0.3,0.3,0.5,0.5,0.7
		c0.2,0.2,0.4,0.3,0.7,0.4c0.3,0.1,0.5,0.2,0.8,0.1c0.2,0,0.4,0,0.6-0.1c0.2,0,0.4-0.1,0.6-0.2c0.2-0.1,0.3-0.2,0.4-0.4
		c0.1-0.1,0.2-0.3,0.3-0.5l1.3,0.4c-0.3,0.5-0.7,1-1.2,1.3C80.8,11.7,80.1,11.9,79.4,11.9z M81.6,7.5c0-0.3-0.1-0.6-0.2-0.9
		c-0.2-0.5-0.7-0.9-1.2-1.1c-0.3-0.1-0.5-0.2-0.8-0.1c-0.3,0-0.6,0-0.8,0.1c-0.2,0.1-0.5,0.2-0.7,0.4c-0.2,0.2-0.4,0.4-0.5,0.7
		c-0.1,0.3-0.2,0.6-0.2,0.9H81.6z"/>
	<path class="st0" d="M87.4,11.9c-0.5,0-0.9-0.1-1.4-0.3c-0.4-0.2-0.8-0.5-1.1-0.8c-0.3-0.4-0.6-0.8-0.7-1.2c-0.2-0.5-0.3-1-0.3-1.5
		c0-0.5,0.1-1,0.2-1.5c0.2-0.4,0.4-0.8,0.7-1.2c0.3-0.3,0.6-0.6,1-0.8c0.4-0.2,0.9-0.3,1.3-0.3c0.5,0,1.1,0.1,1.6,0.4
		c0.4,0.3,0.8,0.7,1,1.1V1.5h1.5v8.4c0,0.1,0,0.3,0.1,0.4c0.1,0.1,0.2,0.1,0.3,0.1v1.3l-0.4,0.1H91c-0.3,0-0.5-0.1-0.8-0.2
		c-0.2-0.2-0.3-0.4-0.3-0.6v-0.5c-0.3,0.5-0.6,0.8-1.1,1.1C88.4,11.7,87.9,11.9,87.4,11.9z M87.7,10.6c0.2,0,0.5,0,0.7-0.1
		c0.2-0.1,0.4-0.2,0.6-0.3c0.2-0.1,0.3-0.3,0.5-0.5c0.1-0.2,0.2-0.4,0.3-0.6v-2c-0.1-0.2-0.2-0.4-0.4-0.6c-0.1-0.2-0.3-0.4-0.5-0.5
		c-0.2-0.1-0.4-0.2-0.6-0.3c-0.2-0.1-0.4-0.1-0.7-0.1c-0.3,0-0.6,0.1-0.8,0.2c-0.3,0.1-0.5,0.3-0.7,0.6c-0.2,0.2-0.3,0.5-0.4,0.8
		c-0.1,0.3-0.2,0.6-0.2,0.9c0,0.6,0.2,1.3,0.7,1.7c0.2,0.2,0.4,0.4,0.7,0.5C87.1,10.5,87.4,10.5,87.7,10.6L87.7,10.6z"/>
	<path class="st0" d="M100.7,11.9c-0.5,0-1.1-0.1-1.5-0.4c-0.4-0.3-0.8-0.6-1.1-1.1v1.3h-1.4V1.5h1.5v4.3c0.3-0.4,0.6-0.8,1.1-1.1
		c0.9-0.5,2-0.5,2.9-0.1c0.4,0.2,0.7,0.5,1,0.8c0.3,0.4,0.5,0.8,0.7,1.2c0.2,0.5,0.2,1,0.2,1.5c0,0.5-0.1,1-0.3,1.5
		c-0.2,0.4-0.4,0.8-0.7,1.2c-0.3,0.3-0.7,0.6-1.1,0.8C101.6,11.8,101.2,11.9,100.7,11.9z M100.3,10.6c0.3,0,0.6-0.1,0.9-0.2
		c0.3-0.1,0.5-0.3,0.7-0.5c0.2-0.2,0.4-0.5,0.5-0.8c0.1-0.3,0.2-0.6,0.2-0.9c0-0.3-0.1-0.6-0.2-1c-0.1-0.3-0.3-0.6-0.4-0.8
		c-0.2-0.2-0.4-0.4-0.7-0.6c-0.3-0.1-0.6-0.2-0.9-0.2c-0.5,0-0.9,0.2-1.3,0.5c-0.4,0.3-0.6,0.7-0.8,1.1v1.9c0.1,0.2,0.2,0.4,0.3,0.6
		c0.1,0.2,0.3,0.3,0.5,0.5c0.2,0.1,0.4,0.2,0.6,0.3C99.9,10.5,100.1,10.5,100.3,10.6L100.3,10.6z"/>
	<path class="st0" d="M105.5,13.4l0.4,0.1c0.1,0,0.2,0,0.3,0c0.1,0,0.2,0,0.3-0.1c0.1-0.1,0.2-0.2,0.3-0.3c0.1-0.2,0.2-0.4,0.3-0.5
		c0.1-0.2,0.2-0.5,0.3-0.9l-3-7.3h1.6l2.3,6l2-6h1.4l-3.3,9c-0.2,0.4-0.4,0.8-0.8,1.1c-0.4,0.3-0.9,0.4-1.4,0.4c-0.1,0-0.2,0-0.3,0
		c-0.1,0-0.3,0-0.4-0.1L105.5,13.4z"/>
	<path class="st0" d="M2.6,76.3V64.3h2.8v5.2l4.4-5.2h3.1l-4.5,5.4l4.8,6.7h-3.2l-3.4-4.9l-1.3,1.3v3.6H2.6z"/>
	<path class="st0" d="M22.6,73.9v2.4h-8.5V64.3h8.3v2.4h-5.5v2.3h4.8v2.3h-4.8v2.6H22.6z"/>
	<path class="st0" d="M24.3,76.3V64.3h5.4c0.5,0,1.1,0.1,1.6,0.4c0.5,0.2,0.9,0.5,1.2,0.9c0.4,0.4,0.7,0.9,0.9,1.3
		c0.2,0.5,0.3,1,0.3,1.5c0,0.7-0.2,1.4-0.5,2.1c-0.3,0.6-0.8,1.1-1.4,1.4l2.7,4.5h-3.2l-2.3-3.9h-1.8v3.9L24.3,76.3z M27.1,70h2.5
		c0.3,0,0.7-0.2,0.8-0.5c0.2-0.4,0.4-0.8,0.3-1.2c0-0.4-0.1-0.9-0.4-1.2c-0.2-0.3-0.5-0.4-0.9-0.4h-2.5V70z"/>
	<path class="st0" d="M38.8,64.3h2.5l4.4,12.1h-2.9l-0.9-2.7h-3.8l-0.9,2.7h-2.8L38.8,64.3z M41.5,71.7L40,67.4l-1.4,4.3H41.5z"/>
	<path class="st0" d="M46.9,76.3V64.3h2.8v9.6h5.8v2.4L46.9,76.3z"/>
	<path class="st0" d="M60.2,64.3h2.5l4.4,12.1h-2.9l-0.9-2.7h-3.8l-0.9,2.7h-2.9L60.2,64.3z M62.8,71.7l-1.4-4.3L60,71.7H62.8z"/>
	<path class="st0" d="M78.9,67.8c-0.1-0.1-0.2-0.2-0.3-0.3c-0.2-0.1-0.5-0.2-0.8-0.4c-0.3-0.1-0.7-0.3-1-0.3
		c-0.4-0.1-0.7-0.2-1.1-0.2c-1,0-1.5,0.3-1.5,1c0,0.2,0.1,0.4,0.2,0.5c0.1,0.1,0.3,0.3,0.5,0.4c0.3,0.1,0.5,0.2,0.8,0.3l1.1,0.3
		c0.6,0.2,1.1,0.3,1.6,0.5c0.4,0.2,0.8,0.4,1.2,0.7c0.3,0.3,0.6,0.6,0.8,1c0.2,0.5,0.3,0.9,0.3,1.4c0,0.6-0.1,1.2-0.4,1.7
		c-0.2,0.5-0.6,0.8-1,1.1c-0.4,0.3-0.9,0.5-1.4,0.6c-0.6,0.1-1.1,0.2-1.7,0.2c-0.5,0-0.9,0-1.4-0.1c-0.5-0.1-0.9-0.2-1.4-0.3
		c-0.4-0.1-0.9-0.3-1.3-0.5c-0.4-0.2-0.8-0.4-1.2-0.6l1.2-2.4c0.1,0.1,0.3,0.2,0.4,0.3c0.3,0.2,0.6,0.3,0.9,0.5
		c0.4,0.2,0.8,0.3,1.2,0.4c0.4,0.1,0.9,0.2,1.4,0.2c1,0,1.5-0.3,1.5-0.9c0-0.2-0.1-0.4-0.2-0.6c-0.2-0.2-0.4-0.3-0.6-0.4
		c-0.3-0.1-0.6-0.2-0.9-0.3l-1.2-0.3c-0.5-0.1-1-0.3-1.5-0.5c-0.4-0.2-0.7-0.4-1-0.7c-0.3-0.3-0.5-0.6-0.6-0.9
		c-0.1-0.4-0.2-0.8-0.2-1.2c0-1.1,0.5-2.2,1.3-2.9c0.4-0.3,0.9-0.6,1.4-0.8c0.5-0.2,1.1-0.3,1.7-0.3c0.4,0,0.8,0,1.2,0.1
		c0.4,0.1,0.8,0.2,1.2,0.3c0.3,0.1,0.7,0.3,1,0.4c0.3,0.2,0.6,0.3,0.9,0.5L78.9,67.8z"/>
	<path class="st0" d="M90.6,73.9v2.4h-8.5V64.3h8.3v2.4h-5.5v2.3h4.8v2.3h-4.8v2.6H90.6z"/>
	<path class="st0" d="M91.4,70.2c0-2.4,1.4-4.5,3.5-5.5c0.8-0.4,1.7-0.5,2.6-0.5c1,0,2.1,0.2,3,0.7c0.8,0.4,1.4,1.1,1.9,1.9
		l-2.1,1.5c-0.1-0.3-0.3-0.6-0.5-0.8c-0.2-0.2-0.4-0.4-0.7-0.5c-0.2-0.1-0.5-0.2-0.8-0.3c-0.3,0-0.5-0.1-0.8-0.1
		c-0.5,0-1,0.1-1.4,0.3c-0.4,0.2-0.7,0.5-1,0.8c-0.3,0.3-0.5,0.7-0.6,1.2c-0.1,0.4-0.2,0.9-0.2,1.3c0,0.5,0.1,0.9,0.2,1.4
		c0.1,0.4,0.3,0.8,0.6,1.2c0.3,0.3,0.6,0.6,1,0.8c0.4,0.2,0.9,0.3,1.3,0.3c0.3,0,0.5,0,0.8-0.1c0.3-0.1,0.5-0.2,0.8-0.3
		c0.3-0.1,0.5-0.3,0.7-0.5c0.2-0.2,0.4-0.5,0.5-0.8l2.3,1.3c-0.2,0.4-0.5,0.8-0.8,1.2c-0.4,0.4-0.8,0.7-1.2,0.9
		c-0.5,0.2-1,0.4-1.5,0.6c-0.5,0.1-1,0.2-1.5,0.2c-0.8,0-1.7-0.2-2.4-0.5c-0.7-0.3-1.4-0.8-1.9-1.4c-0.5-0.6-0.9-1.3-1.2-2
		C91.6,71.7,91.4,71,91.4,70.2z"/>
	<path class="st0" d="M112.9,66.7h-3.7v9.6h-2.8v-9.6h-3.7v-2.4h10.2V66.7z"/>
	<path class="st0" d="M114.2,76.3V64.3h2.8v12.1H114.2z"/>
	<path class="st0" d="M124.6,76.4c-0.8,0-1.7-0.2-2.4-0.5c-0.7-0.3-1.4-0.8-1.9-1.4c-0.5-0.6-0.9-1.3-1.2-2
		c-0.3-0.7-0.4-1.5-0.4-2.3c0-0.8,0.2-1.6,0.4-2.3c0.6-1.5,1.7-2.6,3.2-3.3c0.8-0.3,1.6-0.5,2.4-0.5c0.8,0,1.7,0.2,2.4,0.5
		c0.7,0.3,1.4,0.8,1.9,1.4c0.5,0.6,0.9,1.3,1.2,2c0.3,0.7,0.4,1.5,0.4,2.2c0,0.8-0.2,1.6-0.4,2.3c-0.3,0.7-0.7,1.4-1.2,1.9
		c-0.5,0.6-1.2,1-1.9,1.3C126.3,76.2,125.4,76.4,124.6,76.4z M121.5,70.3c0,0.5,0.1,0.9,0.2,1.4c0.1,0.4,0.3,0.8,0.6,1.2
		c0.3,0.3,0.6,0.6,1,0.8c0.4,0.2,0.9,0.3,1.4,0.3c0.5,0,1-0.1,1.4-0.3c0.4-0.2,0.7-0.5,1-0.8c0.3-0.4,0.5-0.7,0.6-1.2
		c0.3-0.9,0.3-1.8,0-2.7c-0.1-0.4-0.3-0.8-0.6-1.2c-0.3-0.3-0.6-0.6-1-0.8c-0.4-0.2-0.9-0.3-1.4-0.3c-0.5,0-1,0.1-1.4,0.3
		c-0.4,0.2-0.7,0.5-1,0.8c-0.3,0.3-0.5,0.7-0.6,1.2C121.5,69.4,121.5,69.9,121.5,70.3z"/>
	<path class="st0" d="M135,69.4v6.9h-2.8V64.3h2.2l5.6,7.1v-7.1h2.8v12.1h-2.2L135,69.4z"/>
	<path class="st0" d="M50.7,23.9h8.1v29.2h-8.1V23.9z M63,53.1V23.9h22.3v5.7H71.1v6h13v5.7h-13v6.2h14.2v5.7H63z M89.8,53.1V23.9
		h22.3v5.7H97.9v6h13v5.7h-13v6.2h14.2v5.7H89.8z M116.6,53.1V23.9h22.3v5.7h-14.2v6h13v5.7h-13v6.2h14.2v5.7H116.6z M28.5,21.2
		c1.2,1.5,2.5,3.1,3.8,4.6l3.2,3.4c2.9,2.9,6,5.5,9.3,7.7h0.1c0.4,0.3,0.7,0.7,0.8,1.2c0,1.1-1.2,1.3-1.9,1.8
		C37.3,44.7,31.6,50.4,27,56.9l-0.4,0.4c-0.4,0.2-0.8,0.2-1.2,0c-0.5-0.2-0.5-0.7-0.9-1c-1-1.6-2.3-3-3.4-4.5
		c-0.6-0.7-1.2-1.3-1.9-2C15.6,45.7,11.5,42.1,7,39c-0.4-0.3-0.5-0.8-0.4-1.2c0.1-0.6,0.8-0.9,1.2-1.2c5.6-3.9,10.5-8.6,14.8-13.9
		l2.6-3.4c0.3-0.3,0.8-0.5,1.3-0.3c0.2,0.1,0.4,0.2,0.6,0.3L28.5,21.2z"/>
	<path class="st1" d="M24.7,24.2c-1.2,0.9-2.4,1.8-3.6,2.8c-0.1,0.1-0.2,0.2-0.3,0.3c-2.8,2.4-5.4,5.1-7.7,8
		c-0.7,0.7-1.2,1.6-1.5,2.6c0,0.5,0.1,1,0.4,1.4c2,2.8,4.3,5.5,6.9,7.8c2.1,1.9,4.2,4,6.7,5.3c0.8,0.3,1.7,0.1,2.4-0.5
		c3.3-2.4,6.4-5.2,9.1-8.3c1.3-1.6,2.8-3.1,3.5-4.9c0.1-0.7,0-1.4-0.5-1.9c-2.3-3.2-4.9-6.2-7.7-8.8l-0.2-0.1c-1.1-1-2.2-2-3.4-2.9
		C27.6,24,26,23.1,24.7,24.2L24.7,24.2z"/>
	<path class="st0" d="M25.2,25c-4.2,3-8,6.6-11.2,10.6c-0.6,1-1.8,1.8-1.3,3.1c0.5,0.9,1.1,1.7,1.7,2.4c3.1,3.7,6.7,7.1,10.6,10
		c1.7,1.1,2.9-0.7,4.2-1.5c2.7-2.2,5.2-4.6,7.5-7.2v-0.1c1-1.1,1.9-2.2,2.7-3.4c0.3-0.7,0.2-1.4-0.2-2c-3-4.1-6.6-7.8-10.6-10.9
		C27.7,25.3,26.5,24.1,25.2,25z"/>
	<path class="st1" d="M26,27.6l-0.4,1.2l-1.8,5.2c0.5,0,1,0,1.4,0l0,0L25,39.7v0.1c0.6,0.1,1.2,0.1,1.9,0v-0.1L26.7,34v-0.2h1.6
		C27.5,31.8,26.7,29.7,26,27.6L26,27.6z"/>
	<path class="st1" d="M19.9,35.6c-1,0.5-2.5,1.3-2.3,2.7c0.3,0.7,0.9,1.3,1.7,1.5c3.9,1.5,8.1,1.7,12.1,0.5c0.9-0.4,2.2-0.9,2.3-2
		c0-0.9-1-1.5-1.7-1.9v0c0.3-0.1,0.5-0.2,0.8-0.2l0,0c-1.3-0.2-2.5-0.6-3.7-0.9c0.2,0.5,0.4,1.1,0.6,1.7c0.4-0.1,0.8-0.2,1.1-0.3
		c0.7,0.2,1.6,0.6,1.7,1.4s-0.8,1.1-1.3,1.4c-2.8,1-5.9,1.1-8.8,0.3c-0.8-0.2-2-0.6-2-1.6c0.6-1.3,2-1.6,3.2-1.9
		c-0.6-0.4-1.3-0.8-1.9-1.2C21.1,35.1,20.5,35.3,19.9,35.6z M25,41.4c-0.1,2.1-0.1,4-0.3,6c0.9,0.1,1.7,0.1,2.6,0l-0.3-5.8l0-0.3
		C26.3,41.4,25.7,41.4,25,41.4L25,41.4z"/>
	<path class="st0" d="M32.5,54.3V54h0.2c0.1,0,0.3,0,0.3,0.2s-0.1,0.2-0.2,0.2H32.5z M32.5,54.6h0.2l0.3,0.6h0.4l-0.4-0.6
		c0.2,0,0.3-0.1,0.4-0.3c0,0,0,0,0-0.1c0-0.3-0.2-0.4-0.6-0.4h-0.5v1.5h0.3V54.6z M34,54.5c0-0.8-0.6-1.4-1.3-1.4s-1.4,0.6-1.4,1.3
		c0,0.8,0.6,1.4,1.3,1.4c0,0,0,0,0,0c0.7,0.1,1.3-0.5,1.4-1.2C34.1,54.6,34.1,54.5,34,54.5L34,54.5z M33.7,54.5c0,0.6-0.4,1-1,1l0,0
		c-0.6,0-1-0.4-1-1s0.4-1,1-1S33.7,53.9,33.7,54.5z"/>
</g>
</svg>
