<?xml version="1.0" encoding="utf-8"?>
<!-- Generator: Adobe Illustrator 22.1.0, SVG Export Plug-In . SVG Version: 6.00 Build 0)  -->
<svg version="1.1" id="Layer_1" xmlns="http://www.w3.org/2000/svg" xmlns:xlink="http://www.w3.org/1999/xlink" x="0px" y="0px"
	 viewBox="0 0 98.5 103.8" style="enable-background:new 0 0 98.5 103.8;" xml:space="preserve">
<style type="text/css">
	.st0{fill:#FFB800;}
	.st1{fill:#333333;}
	.st2{fill:#FFFFFE;}
	.st3{fill:none;stroke:#008C0A;stroke-width:1.5;stroke-linecap:round;stroke-miterlimit:10;}
</style>
<title>Kerala Relief page icons</title>
<path class="st0" d="M25.4,1.8h48.6c5.5,0,9.9,4.4,9.9,9.9v80.2c0,5.5-4.4,9.9-9.9,9.9H25.4c-5.5,0-9.9-4.4-9.9-9.9V11.7
	C15.5,6.3,19.9,1.8,25.4,1.8z"/>
<path class="st1" d="M29.9,18.5v-6.4h0.8v3.5l3.3-3.5h0.9L32.3,15l2.7,3.6h-0.9l-2.3-3.1l-1.1,1.2v2L29.9,18.5z"/>
<path class="st1" d="M41.2,17.8v0.7h-4.3v-6.4h4.3v0.7h-3.5v2.1h3v0.7h-3v2.2H41.2z"/>
<path class="st1" d="M43.4,18.5v-6.4h2.7c0.3,0,0.5,0.1,0.8,0.2c0.2,0.1,0.4,0.3,0.6,0.5c0.2,0.2,0.3,0.4,0.4,0.7
	c0.1,0.2,0.1,0.5,0.1,0.7c0,0.2,0,0.4-0.1,0.6c-0.1,0.2-0.2,0.4-0.3,0.6c-0.1,0.2-0.3,0.3-0.4,0.4c-0.2,0.1-0.4,0.2-0.6,0.3l1.5,2.5
	h-0.9l-1.5-2.3h-1.7v2.3L43.4,18.5z M44.2,15.5h1.9c0.2,0,0.3,0,0.5-0.1c0.1-0.1,0.3-0.2,0.3-0.3c0.1-0.1,0.2-0.3,0.2-0.4
	c0.1-0.2,0.1-0.3,0.1-0.5c0-0.2,0-0.3-0.1-0.5c-0.1-0.2-0.1-0.3-0.2-0.4c-0.1-0.1-0.2-0.2-0.4-0.3c-0.1-0.1-0.3-0.1-0.5-0.1h-1.9
	L44.2,15.5z"/>
<path class="st1" d="M52.4,12.2h0.7l2.6,6.4h-0.9L54,16.7h-2.7l-0.8,1.9h-0.9L52.4,12.2z M53.9,16l-1.2-2.9L51.6,16H53.9z"/>
<path class="st1" d="M57.6,18.5v-6.4h0.8v5.7H62v0.7H57.6z"/>
<path class="st1" d="M65.9,12.2h0.7l2.6,6.4h-0.9l-0.8-1.9h-2.6l-0.8,1.9h-0.9L65.9,12.2z M67.4,16l-1.2-2.9l-1.2,3L67.4,16z"/>
<path class="st1" d="M38,24.3c-0.1-0.1-0.2-0.2-0.3-0.2c-0.1-0.1-0.3-0.2-0.4-0.2c-0.2-0.1-0.3-0.1-0.5-0.2c-0.2,0-0.4,0-0.5,0
	c-0.4,0-0.8,0.1-1.1,0.3c-0.2,0.2-0.4,0.5-0.3,0.8c0,0.1,0,0.3,0.1,0.4c0.1,0.1,0.2,0.2,0.3,0.3c0.2,0.1,0.3,0.2,0.5,0.2l0.7,0.2
	c0.3,0.1,0.6,0.1,0.9,0.2c0.2,0.1,0.5,0.2,0.7,0.4c0.2,0.1,0.3,0.3,0.4,0.5c0.1,0.2,0.1,0.5,0.1,0.7c0,0.3-0.1,0.6-0.2,0.8
	c-0.1,0.2-0.3,0.4-0.5,0.6c-0.2,0.2-0.5,0.3-0.7,0.3c-0.3,0.1-0.6,0.1-0.9,0.1c-0.5,0-1-0.1-1.4-0.2c-0.4-0.1-0.8-0.4-1.2-0.7
	l0.4-0.7c0.1,0.1,0.2,0.2,0.4,0.3c0.2,0.1,0.3,0.2,0.5,0.3c0.2,0.1,0.4,0.1,0.6,0.2c0.2,0.1,0.5,0.1,0.7,0.1c0.4,0,0.7-0.1,1.1-0.3
	c0.3-0.2,0.4-0.4,0.4-0.7c0-0.2,0-0.3-0.1-0.5c-0.1-0.1-0.2-0.2-0.4-0.3c-0.2-0.1-0.4-0.2-0.6-0.2l-0.8-0.2
	c-0.3-0.1-0.6-0.2-0.8-0.2c-0.2-0.1-0.4-0.2-0.6-0.3c-0.2-0.1-0.3-0.3-0.4-0.5C34,25.2,34,25,34,24.8c0-0.3,0.1-0.6,0.2-0.8
	c0.1-0.2,0.3-0.4,0.5-0.6c0.2-0.2,0.5-0.3,0.7-0.4c0.7-0.2,1.4-0.2,2.1,0.1c0.3,0.1,0.6,0.3,0.9,0.5L38,24.3z"/>
<path class="st1" d="M45.4,23.7h-2.2v5.7h-0.8v-5.7h-2.2V23h5.2L45.4,23.7z"/>
<path class="st1" d="M48.8,23h0.7l2.6,6.4h-0.9l-0.8-1.9h-2.7L47,29.4h-0.9L48.8,23z M50.3,26.8l-1.2-2.9l-1.2,3L50.3,26.8z"/>
<path class="st1" d="M58,23.7h-2.2v5.7H55v-5.7h-2.2V23H58V23.7z"/>
<path class="st1" d="M64.4,28.6v0.8H60V23h4.2v0.7h-3.4v2.1h3v0.7h-3v2.2L64.4,28.6z"/>
<path class="st1" d="M33.5,93.1v-4.9L31.4,92h-0.5l-2.1-3.8v4.9H28v-6.4h0.9l2.3,4.2l2.3-4.2h0.8v6.4L33.5,93.1z"/>
<path class="st1" d="M36.9,93.1v-6.4h0.8v6.4L36.9,93.1z"/>
<path class="st1" d="M44.1,88.1c-0.1-0.1-0.2-0.2-0.3-0.2c-0.1-0.1-0.3-0.2-0.4-0.2c-0.2-0.1-0.3-0.1-0.5-0.2
	c-0.2,0-0.4-0.1-0.6-0.1c-0.4,0-0.8,0.1-1.1,0.3c-0.2,0.2-0.4,0.5-0.3,0.8c0,0.1,0,0.3,0.1,0.4c0.1,0.1,0.2,0.2,0.3,0.3
	c0.2,0.1,0.3,0.2,0.5,0.2c0.2,0.1,0.5,0.1,0.8,0.2c0.3,0.1,0.6,0.1,0.9,0.2c0.2,0.1,0.5,0.2,0.7,0.3c0.2,0.1,0.3,0.3,0.4,0.5
	c0.1,0.2,0.2,0.5,0.2,0.7c0,0.3-0.1,0.6-0.2,0.8c-0.1,0.2-0.3,0.4-0.5,0.6c-0.2,0.2-0.5,0.3-0.7,0.3c-0.3,0.1-0.6,0.1-0.9,0.1
	c-0.5,0-0.9-0.1-1.4-0.2c-0.4-0.2-0.8-0.4-1.2-0.7l0.4-0.7c0.1,0.1,0.2,0.2,0.4,0.3c0.2,0.1,0.3,0.2,0.5,0.3
	c0.2,0.1,0.4,0.1,0.6,0.2c0.2,0.1,0.5,0.1,0.7,0.1c0.4,0,0.7-0.1,1.1-0.2c0.4-0.3,0.5-0.8,0.3-1.2c-0.1-0.1-0.2-0.2-0.4-0.3
	c-0.2-0.1-0.4-0.2-0.6-0.2l-0.8-0.2c-0.3-0.1-0.6-0.2-0.9-0.3c-0.2-0.1-0.4-0.2-0.6-0.3c-0.2-0.1-0.3-0.3-0.4-0.5
	c-0.1-0.2-0.1-0.4-0.1-0.7c0-0.3,0.1-0.6,0.2-0.8c0.1-0.2,0.3-0.4,0.5-0.6c0.2-0.2,0.5-0.3,0.7-0.4c0.7-0.2,1.4-0.2,2.1,0.1
	c0.3,0.1,0.7,0.3,1,0.5L44.1,88.1z"/>
<path class="st1" d="M50.7,88.1c-0.1-0.1-0.2-0.2-0.3-0.2c-0.1-0.1-0.3-0.2-0.4-0.2c-0.2-0.1-0.3-0.1-0.5-0.2
	c-0.2,0-0.4-0.1-0.5-0.1c-0.4,0-0.8,0.1-1.1,0.3c-0.2,0.2-0.4,0.5-0.3,0.8c0,0.1,0,0.3,0.1,0.4c0.1,0.1,0.2,0.2,0.3,0.3
	c0.2,0.1,0.3,0.2,0.5,0.2c0.2,0.1,0.5,0.1,0.7,0.2c0.3,0.1,0.6,0.1,0.9,0.2c0.2,0.1,0.5,0.2,0.7,0.3c0.2,0.1,0.3,0.3,0.4,0.5
	c0.1,0.2,0.1,0.5,0.1,0.7c0,0.3-0.1,0.6-0.2,0.8c-0.1,0.2-0.3,0.4-0.5,0.6c-0.2,0.2-0.5,0.3-0.7,0.3c-0.3,0.1-0.6,0.1-0.9,0.1
	c-0.5,0-0.9-0.1-1.4-0.2c-0.4-0.2-0.8-0.4-1.2-0.7l0.4-0.7c0.1,0.1,0.2,0.2,0.4,0.3c0.2,0.1,0.3,0.2,0.5,0.3
	c0.2,0.1,0.4,0.1,0.6,0.2c0.2,0.1,0.5,0.1,0.7,0.1c0.4,0,0.7-0.1,1.1-0.2c0.2-0.2,0.4-0.4,0.4-0.7c0-0.2,0-0.3-0.1-0.4
	c-0.1-0.1-0.2-0.2-0.4-0.3c-0.2-0.1-0.4-0.2-0.6-0.2l-0.8-0.2c-0.3-0.1-0.6-0.2-0.9-0.3c-0.2-0.1-0.4-0.2-0.6-0.3
	c-0.2-0.1-0.3-0.3-0.4-0.5c-0.1-0.2-0.1-0.4-0.1-0.7c0-0.3,0.1-0.6,0.2-0.8c0.1-0.2,0.3-0.4,0.5-0.6c0.2-0.2,0.5-0.3,0.7-0.4
	c0.7-0.2,1.4-0.2,2.1,0.1c0.3,0.1,0.7,0.3,0.9,0.5L50.7,88.1z"/>
<path class="st1" d="M53.6,93.1v-6.4h0.8v6.4L53.6,93.1z"/>
<path class="st1" d="M59.6,93.2c-0.4,0-0.8-0.1-1.2-0.3c-0.4-0.2-0.7-0.4-1-0.7c-0.3-0.3-0.5-0.6-0.6-1c-0.1-0.4-0.2-0.8-0.2-1.2
	c0-0.4,0.1-0.8,0.2-1.2c0.1-0.4,0.4-0.7,0.6-1c0.3-0.3,0.6-0.5,1-0.7c0.4-0.2,0.8-0.3,1.2-0.3c0.4,0,0.8,0.1,1.2,0.3
	c0.7,0.4,1.3,1,1.6,1.8c0.1,0.4,0.2,0.7,0.2,1.1c0,0.4-0.1,0.8-0.2,1.2c-0.1,0.4-0.4,0.7-0.6,1c-0.3,0.3-0.6,0.5-1,0.7
	C60.3,93.1,60,93.2,59.6,93.2z M57.4,89.9c0,0.3,0,0.6,0.2,0.9c0.1,0.3,0.3,0.6,0.4,0.8c0.2,0.2,0.4,0.4,0.7,0.6
	c0.3,0.1,0.6,0.2,0.9,0.2c0.3,0,0.6-0.1,0.9-0.2c0.3-0.1,0.5-0.3,0.7-0.6c0.2-0.2,0.3-0.5,0.4-0.8c0.1-0.3,0.1-0.6,0.2-0.9
	c0-0.3-0.1-0.6-0.2-0.9c-0.1-0.3-0.2-0.6-0.4-0.8c-0.2-0.2-0.4-0.4-0.7-0.6c-0.6-0.3-1.2-0.3-1.8,0c-0.3,0.1-0.5,0.3-0.7,0.6
	c-0.2,0.2-0.3,0.5-0.4,0.8C57.4,89.3,57.4,89.6,57.4,89.9z"/>
<path class="st1" d="M65.6,88.2v4.9h-0.8v-6.4h0.6l4,5v-5h0.8v6.4h-0.7L65.6,88.2z"/>
<path class="st2" d="M25.9,80.4V35.2h9.2v45.2H25.9z"/>
<path class="st2" d="M52.8,80.4V43H41.6v-7.8h31.8V43H62.1v37.4H52.8z"/>
<path class="st3" d="M2.6,66.1c0,0,13.6-11.4,26.4-14.2s22.3,2.1,13.2,13.2c-7.1,8.7,5,12.3,17.5,2.2c4.9-3.9,10.5-7,16.5-9
	c6.5-2.2,13.2-3.2,19.4-1.6"/>
</svg>
